<?xml version="1.0" standalone="no"?><!DOCTYPE svg PUBLIC "-//W3C//DTD SVG 1.1//EN" "http://www.w3.org/Graphics/SVG/1.1/DTD/svg11.dtd"><svg t="1676601401087" class="icon" viewBox="0 0 1024 1024" version="1.1" xmlns="http://www.w3.org/2000/svg" p-id="2761" width="64" height="64" xmlns:xlink="http://www.w3.org/1999/xlink"><path d="M566.4 98.3H460.2c-23.5 0-42.6 19.1-42.6 42.6v106.2c0 23.5 19.1 42.6 42.6 42.6h106.3c23.5 0 42.6-19.1 42.6-42.6V140.9c0-23.6-19.1-42.6-42.7-42.6z m1.1 147.4l-107.4-0.1V139.4l1.2-0.1 106.3 0.1-0.1 106.3z m-1.1 171.6H460.2c-23.5 0-42.6 19.1-42.6 42.6v106.2c0 23.5 19.1 42.6 42.6 42.6h106.3c23.5 0 42.6-19.1 42.6-42.6V459.9c0-23.5-19.1-42.6-42.7-42.6z m1.1 147.4l-107.4-0.1V458.5l1.2-0.1 106.3 0.1-0.1 106.2z m-1.1 171.6H460.2c-23.5 0-42.6 19.1-42.6 42.6v106.2c0 23.5 19.1 42.6 42.6 42.6h106.3c23.5 0 42.6-19.1 42.6-42.6V778.9c0-23.5-19.1-42.6-42.7-42.6z m1.1 147.5l-107.4-0.1V777.5l1.2-0.1 106.3 0.1-0.1 106.3z m-469-743v106.3c0 23.5 19.1 42.6 42.6 42.6h106.2c23.5 0 42.6-19.1 42.6-42.6V140.8c0-23.5-19.1-42.6-42.6-42.6H141.1c-23.5 0-42.6 19-42.6 42.6z m147.5-1.1l-0.1 107.4H139.7l-0.1-1.2 0.1-106.3 106.3 0.1z m171.5 1.1v106.3c0 23.5 19.1 42.6 42.6 42.6h106.2c23.5 0 42.6-19.1 42.6-42.6V140.8c0-23.5-19.1-42.6-42.6-42.6H460.1c-23.5 0-42.6 19-42.6 42.6z m147.5-1.1l-0.1 107.4H458.7l-0.1-1.2 0.1-106.3 106.3 0.1z m171.6 1.1v106.3c0 23.5 19.1 42.6 42.6 42.6h106.2c23.5 0 42.6-19.1 42.6-42.6V140.8c0-23.5-19.1-42.6-42.6-42.6H779.2c-23.6 0-42.6 19-42.6 42.6z m147.4-1.1v107.5H777.7l-0.1-1.2 0.1-106.3H884zM98.5 459.8v106.3c0 23.5 19.1 42.6 42.6 42.6h106.2c23.5 0 42.6-19.1 42.6-42.6V459.8c0-23.5-19.1-42.6-42.6-42.6H141.1c-23.5 0-42.6 19.1-42.6 42.6z m147.5-1.1l-0.1 107.4H139.7l-0.1-1.2 0.1-106.3 106.3 0.1z m171.5 1.1v106.3c0 23.5 19.1 42.6 42.6 42.6h106.2c23.5 0 42.6-19.1 42.6-42.6V459.8c0-23.5-19.1-42.6-42.6-42.6H460.1c-23.5 0-42.6 19.1-42.6 42.6z m147.5-1.1l-0.1 107.4H458.7l-0.1-1.2 0.1-106.3 106.3 0.1z m171.6 1.1v106.3c0 23.5 19.1 42.6 42.6 42.6h106.2c23.5 0 42.6-19.1 42.6-42.6V459.8c0-23.5-19.1-42.6-42.6-42.6H779.2c-23.6 0-42.6 19.1-42.6 42.6z m147.4-1.1v107.5H777.7l-0.1-1.2 0.1-106.3H884zM98.5 778.9v106.3c0 23.5 19.1 42.6 42.6 42.6h106.2c23.5 0 42.6-19.1 42.6-42.6V778.9c0-23.5-19.1-42.6-42.6-42.6H141.1c-23.5-0.1-42.6 19-42.6 42.6z m147.5-1.2l-0.1 107.5H139.7l-0.1-1.2 0.1-106.3H246z m171.5 1.2v106.3c0 23.5 19.1 42.6 42.6 42.6h106.2c23.5 0 42.6-19.1 42.6-42.6V778.9c0-23.5-19.1-42.6-42.6-42.6H460.1c-23.5-0.1-42.6 19-42.6 42.6z m147.5-1.2l-0.1 107.5H458.7l-0.1-1.2 0.1-106.3H565z m171.6 1.2v106.3c0 23.5 19.1 42.6 42.6 42.6h106.2c23.5 0 42.6-19.1 42.6-42.6V778.9c0-23.5-19.1-42.6-42.6-42.6H779.2c-23.6-0.1-42.6 19-42.6 42.6z m147.4-1.2v107.5H777.7l-0.1-1.2 0.1-106.3H884z" p-id="2762" fill="#ffffff"></path></svg>